name Walk2.mot
datacolumns 19
datarows 25
range 2.06000000 2.18000000
endheader

                time	   L_ground_force_vx	   L_ground_force_vy	   L_ground_force_vz	   L_ground_force_px	   L_ground_force_py	   L_ground_force_pz	   R_ground_force_vx	   R_ground_force_vy	   R_ground_force_vz	   R_ground_force_px	   R_ground_force_py	   R_ground_force_pz	   L_ground_torque_x	   L_ground_torque_y	   L_ground_torque_z	   R_ground_torque_x	   R_ground_torque_y	   R_ground_torque_z	
          2.06000000	         -0.00000000	         -0.00000000	          0.00000000	          0.00000000	          0.00000000	          0.00000000	        -24.32729655	        538.66163360	        -39.55633459	          0.17711311	          0.00000000	          0.09758572	          0.00000000	         -0.00000000	          0.00000000	          0.00000000	          1.45889454	          0.00000000	
          2.06500000	         -0.00000000	         -0.00000000	          0.00000000	          0.00000000	          0.00000000	          0.00000000	        -22.92754791	        533.91192122	        -39.26648437	          0.17903689	          0.00000000	          0.09781703	          0.00000000	         -0.00000000	          0.00000000	          0.00000000	          1.38120907	          0.00000000	
          2.07000000	          0.00000000	          0.00000000	         -0.00000000	         -0.00000000	          0.00000000	         -0.00000000	        -21.50005324	        529.63205272	        -38.81927350	          0.18105300	          0.00000000	          0.09812221	          0.00000000	          0.00000000	          0.00000000	          0.00000000	          1.35521219	          0.00000000	
          2.07500000	          0.00000000	          0.00000000	         -0.00000000	         -0.00000000	          0.00000000	         -0.00000000	        -20.03850107	        525.85821723	        -38.23820117	          0.18309062	          0.00000000	          0.09846619	          0.00000000	          0.00000000	          0.00000000	          0.00000000	          1.35719710	          0.00000000	
          2.08000000	         -0.00000000	         -0.00000000	         -0.00000000	         -0.00000000	          0.00000000	         -0.00000000	        -18.72969392	        522.53798276	        -37.59191997	          0.18502087	          0.00000000	          0.09861633	          0.00000000	          0.00000000	          0.00000000	          0.00000000	          1.35579720	          0.00000000	
          2.08500000	         -0.00000000	         -0.00000000	          0.00000000	          0.00000000	          0.00000000	          0.00000000	        -17.42067522	        519.32043867	        -36.94376374	          0.18680966	          0.00000000	          0.09855072	          0.00000000	         -0.00000000	          0.00000000	          0.00000000	          1.39439803	          0.00000000	
          2.09000000	         -0.00000000	         -0.00000000	          0.00000000	          0.00000000	          0.00000000	          0.00000000	        -16.09639550	        516.41328311	        -36.28965951	          0.18871135	          0.00000000	          0.09849734	          0.00000000	         -0.00000000	          0.00000000	          0.00000000	          1.43031318	          0.00000000	
          2.09500000	          0.00000000	          0.00000000	         -0.00000000	          0.00000000	          0.00000000	          0.00000000	        -14.85103863	        514.00466313	        -35.74242514	          0.19045268	          0.00000000	          0.09836092	          0.00000000	          0.00000000	          0.00000000	          0.00000000	          1.43601842	          0.00000000	
          2.10000000	          0.00000000	          0.00000000	         -0.00000000	         -0.00000000	          0.00000000	         -0.00000000	        -13.57922872	        511.86856911	        -35.40508495	          0.19177087	          0.00000000	          0.09817597	          0.00000000	          0.00000000	          0.00000000	          0.00000000	          1.44841581	          0.00000000	
          2.10500000	          0.00000000	          0.00000000	         -0.00000000	         -0.00000000	          0.00000000	         -0.00000000	        -12.20167438	        510.27094349	        -35.27445858	          0.19317575	          0.00000000	          0.09811874	          0.00000000	          0.00000000	          0.00000000	          0.00000000	          1.46728349	          0.00000000	
          2.11000000	         -0.00000000	         -0.00000000	          0.00000000	          0.00000000	          0.00000000	          0.00000000	        -10.82524197	        509.15015035	        -35.22925824	          0.19486905	          0.00000000	          0.09812342	          0.00000000	         -0.00000000	          0.00000000	          0.00000000	          1.45861455	          0.00000000	
          2.11500000	         -0.00000000	         -0.00000000	          0.00000000	          0.00000000	          0.00000000	          0.00000000	         -9.34839134	        508.38721521	        -35.22134331	          0.19660355	          0.00000000	          0.09805049	          0.00000000	         -0.00000000	          0.00000000	          0.00000000	          1.45695978	          0.00000000	
          2.12000000	         -0.00000000	         -0.00000000	          0.00000000	          0.00000000	          0.00000000	          0.00000000	         -7.79304871	        507.77657653	        -35.16576460	          0.19808657	          0.00000000	          0.09788893	          0.00000000	         -0.00000000	          0.00000000	          0.00000000	          1.48052696	          0.00000000	
          2.12500000	          0.00000000	          0.00000000	         -0.00000000	         -0.00000000	          0.00000000	         -0.00000000	         -6.45104944	        507.53789020	        -35.09116747	          0.19928424	          0.00000000	          0.09769046	          0.00000000	          0.00000000	          0.00000000	          0.00000000	          1.48269876	          0.00000000	
          2.13000000	          0.00000000	          0.00000000	         -0.00000000	         -0.00000000	          0.00000000	         -0.00000000	         -5.29373792	        508.21620116	        -35.10760886	          0.20052157	          0.00000000	          0.09756373	          0.00000000	          0.00000000	          0.00000000	          0.00000000	          1.49549464	          0.00000000	
          2.13500000	         -0.00000000	          0.00000000	         -0.00000000	         -0.00000000	          0.00000000	         -0.00000000	         -4.04498522	        509.67746493	        -35.13069412	          0.20200865	          0.00000000	          0.09745105	          0.00000000	          0.00000000	          0.00000000	          0.00000000	          1.52547241	          0.00000000	
          2.14000000	         -0.00000000	         -0.00000000	          0.00000000	          0.00000000	          0.00000000	          0.00000000	         -2.67771057	        511.51706338	        -35.17802824	          0.20327894	          0.00000000	          0.09724994	          0.00000000	         -0.00000000	          0.00000000	          0.00000000	          1.53675372	          0.00000000	
          2.14500000	         -0.00000000	         -0.00000000	          0.00000000	          0.00000000	          0.00000000	          0.00000000	         -1.22059313	        513.85218290	        -35.20925902	          0.20443191	          0.00000000	          0.09699869	          0.00000000	         -0.00000000	          0.00000000	          0.00000000	          1.50613571	          0.00000000	
          2.15000000	          0.00000000	          0.00000000	         -0.00000000	          0.00000000	          0.00000000	          0.00000000	          0.37412303	        516.76604215	        -35.25406248	          0.20546045	          0.00000000	          0.09686059	          0.00000000	          0.00000000	          0.00000000	          0.00000000	          1.44492539	          0.00000000	
          2.15500000	          0.00000000	          0.00000000	         -0.00000000	         -0.00000000	          0.00000000	         -0.00000000	          2.07241796	        520.37656543	        -35.42091587	          0.20636903	          0.00000000	          0.09682575	          0.00000000	          0.00000000	          0.00000000	          0.00000000	          1.43044471	          0.00000000	
          2.16000000	          0.00000000	          0.00000000	         -0.00000000	         -0.00000000	          0.00000000	         -0.00000000	          3.78211885	        525.07728878	        -35.64168365	          0.20731793	          0.00000000	          0.09685772	          0.00000000	          0.00000000	          0.00000000	          0.00000000	          1.41995165	          0.00000000	
          2.16500000	         -0.00000000	         -0.00000000	          0.00000000	          0.00000000	          0.00000000	         -0.00000000	          5.46585595	        530.41434335	        -35.85038217	          0.20816453	          0.00000000	          0.09676308	          0.00000000	         -0.00000000	          0.00000000	          0.00000000	          1.39519532	          0.00000000	
          2.17000000	         -0.00000000	         -0.00000000	          0.00000000	          0.00000000	          0.00000000	          0.00000000	          7.14854317	        535.87595986	        -36.09907190	          0.20878811	          0.00000000	          0.09656596	          0.00000000	         -0.00000000	          0.00000000	          0.00000000	          1.40514079	          0.00000000	
          2.17500000	         -0.00000000	         -0.00000000	          0.00000000	          0.00000000	          0.00000000	          0.00000000	          8.95251679	        541.70095944	        -36.40975117	          0.20940109	          0.00000000	          0.09651832	          0.00000000	         -0.00000000	          0.00000000	          0.00000000	          1.42515013	          0.00000000	
          2.18000000	          0.00000000	          0.00000000	         -0.00000000	         -0.00000000	          0.00000000	         -0.00000000	         10.94135930	        548.32984130	        -36.77683015	          0.21031514	          0.00000000	          0.09665665	          0.00000000	          0.00000000	          0.00000000	          0.00000000	          1.41227670	          0.00000000	
